<?xml version="1.0" encoding="UTF-8" standalone="no"?>
<!-- Created with Inkscape (http://www.inkscape.org/) -->

<svg
   width="25"
   height="25"
   viewBox="0 0 25 25"
   id="svg2"
   version="1.1"
   inkscape:version="1.3.2 (091e20e, 2023-11-25)"
   sodipodi:docname="keystrokes.svg"
   inkscape:export-xdpi="90"
   inkscape:export-ydpi="90"
   xmlns:inkscape="http://www.inkscape.org/namespaces/inkscape"
   xmlns:sodipodi="http://sodipodi.sourceforge.net/DTD/sodipodi-0.dtd"
   xmlns="http://www.w3.org/2000/svg"
   xmlns:svg="http://www.w3.org/2000/svg"
   xmlns:rdf="http://www.w3.org/1999/02/22-rdf-syntax-ns#"
   xmlns:cc="http://creativecommons.org/ns#"
   xmlns:dc="http://purl.org/dc/elements/1.1/">
  <defs
     id="defs4" />
  <sodipodi:namedview
     id="base"
     pagecolor="#959595"
     bordercolor="#666666"
     borderopacity="1.0"
     inkscape:pageopacity="0"
     inkscape:pageshadow="2"
     inkscape:zoom="26.12"
     inkscape:cx="11.466309"
     inkscape:cy="8.6140888"
     inkscape:document-units="px"
     inkscape:current-layer="text5290"
     showgrid="false"
     units="px"
     inkscape:snap-bbox="true"
     inkscape:bbox-paths="true"
     inkscape:bbox-nodes="true"
     inkscape:snap-bbox-edge-midpoints="true"
     inkscape:object-paths="true"
     showguides="true"
     inkscape:window-width="1136"
     inkscape:window-height="947"
     inkscape:window-x="456"
     inkscape:window-y="404"
     inkscape:window-maximized="0"
     inkscape:snap-smooth-nodes="true"
     inkscape:object-nodes="true"
     inkscape:snap-intersection-paths="true"
     inkscape:snap-nodes="true"
     inkscape:snap-global="true"
     inkscape:showpageshadow="2"
     inkscape:pagecheckerboard="0"
     inkscape:deskcolor="#d1d1d1">
    <inkscape:grid
       type="xygrid"
       id="grid4136"
       originx="0"
       originy="0"
       spacingy="1"
       spacingx="1"
       units="px"
       visible="false" />
  </sodipodi:namedview>
  <metadata
     id="metadata7">
    <rdf:RDF>
      <cc:Work
         rdf:about="">
        <dc:format>image/svg+xml</dc:format>
        <dc:type
           rdf:resource="http://purl.org/dc/dcmitype/StillImage" />
        <dc:title />
      </cc:Work>
    </rdf:RDF>
  </metadata>
  <g
     inkscape:label="Layer 1"
     inkscape:groupmode="layer"
     id="layer1"
     transform="translate(0,-1027.3622)">
    <g
       style="font-style:normal;font-variant:normal;font-weight:bold;font-stretch:normal;font-size:48px;line-height:125%;font-family:'DejaVu Sans';-inkscape-font-specification:'Sans Bold';text-align:start;letter-spacing:0px;word-spacing:0px;writing-mode:lr-tb;text-anchor:start;fill:#000000;fill-opacity:1;stroke:none;stroke-width:1px;stroke-linecap:butt;stroke-linejoin:miter;stroke-opacity:1"
       id="text5290">
      <path
         d="m 19.32966,1036.3171 v 1.7355 q -0.734861,-0.3063 -1.4186,-0.4594 -0.683739,-0.1532 -1.290799,-0.1532 -0.651788,0 -0.971293,0.166 -0.313114,0.1594 -0.313114,0.4976 0,0.2744 0.236433,0.4211 0.242823,0.1468 0.862662,0.2169 l 0.402576,0.057 q 1.757274,0.2233 2.364333,0.7337 0.607059,0.5104 0.607059,1.6015 0,1.1421 -0.843492,1.7162 -0.843493,0.5743 -2.517696,0.5743 -0.7093,0 -1.46972,-0.115 -0.75403,-0.1084 -1.552792,-0.3318 v -1.7354 q 0.683739,0.3318 1.399429,0.4976 0.722081,0.166 1.463331,0.166 0.670959,0 1.009635,-0.1851 0.338674,-0.185 0.338674,-0.5486 0,-0.3063 -0.236433,-0.4531 -0.230044,-0.1531 -0.926563,-0.2361 l -0.402575,-0.051 q -1.527233,-0.1915 -2.140681,-0.7083 -0.613449,-0.5168 -0.613449,-1.5696 0,-1.1356 0.779591,-1.6844 0.779592,-0.5487 2.389893,-0.5487 0.63262,0 1.329139,0.095 0.69652,0.095 1.514452,0.2997 z"
         style="font-size:10px;fill:#ffffff;fill-opacity:1;stroke-width:1.30769px"
         id="path5316" />
      <path
         d="M 11.174716,1043.2136 H 9.544904 l -2.499489,-2.8409 -0.652821,0.4962 -0.07671,2.3816 -1.4726438,-0.037 3.604e-4,-7.1936 1.4726439,0.037 0.038107,3.4363 0.937731,-0.9807 2.2053718,-2.4554 1.6179647,-10e-5 -3.0466092,3.4683 z"
         id="text4"
         style="font-weight:normal;font-size:11.2301px;line-height:1.25;font-family:sans-serif;fill:#ffffff;stroke-width:0.276397px"
         aria-label="K"
         sodipodi:nodetypes="cccccccccccccc" />
    </g>
  </g>
</svg>
